<?xml version="1.0" encoding="UTF-8"?>
<svg id="Layer_1" xmlns="http://www.w3.org/2000/svg" version="1.1" viewBox="0 0 144 54">
  <!-- Generator: Adobe Illustrator 30.4.0, SVG Export Plug-In . SVG Version: 2.1.4 Build 226)  -->
  <defs>
    <style>
      .st0, .st1 {
        fill: #2f2f80;
      }

      .st0, .st2 {
        font-size: 7.61px;
      }

      .st0, .st2, .st3, .st4, .st5 {
        display: none;
      }

      .st0, .st3, .st4 {
        font-family: AmericanTypewriter-Condensed, 'American Typewriter';
      }

      .st6, .st3, .st4 {
        fill: #231f20;
      }

      .st7, .st2 {
        fill: #fff;
      }

      .st2 {
        font-family: SofiaPro-Regular, 'Sofia Pro';
        letter-spacing: -.02em;
      }

      .st3 {
        font-size: 4.75px;
      }

      .st4 {
        font-size: 5.23px;
      }

      .st8 {
        fill: #101123;
      }
    </style>
  </defs>
  <rect class="st1" x="25.07" y="4.26" width=".26" height="45.93" rx=".13" ry=".13"/>
  <path class="st6" d="M42.72,24.94h23.69c1.19,0,2.16.97,2.16,2.16v6.74h-28.01v-6.74c0-1.19.97-2.16,2.16-2.16Z"/>
  <path class="st1" d="M40.55,33.83h28.01v6.74c0,1.19-.97,2.16-2.16,2.16h-23.69c-1.19,0-2.16-.97-2.16-2.16v-6.74h0Z"/>
  <text class="st2" transform="translate(45.35 31.21)"><tspan x="0" y="0">10mg</tspan></text>
  <g>
    <path class="st7" d="M45.87,37.87c0,.88-.35,2.04-1.53,2.04-.43,0-.9-.15-1.15-.75l.45-.18c.15.34.43.47.71.47.57,0,1-.64.98-1.37-.18.27-.51.46-.89.46-.76,0-1.28-.59-1.28-1.24s.51-1.23,1.32-1.23c.92,0,1.39.76,1.39,1.8ZM45.32,37.34c0-.45-.35-.78-.81-.79-.48,0-.83.33-.83.76s.33.74.78.75c.46,0,.85-.3.87-.72Z"/>
    <path class="st7" d="M49.07,37.87c0,.88-.35,2.04-1.53,2.04-.43,0-.9-.15-1.15-.75l.45-.18c.15.34.43.47.71.47.57,0,1-.64.98-1.37-.18.27-.51.46-.89.46-.76,0-1.28-.59-1.28-1.24s.51-1.23,1.32-1.23c.92,0,1.39.76,1.39,1.8ZM48.51,37.34c0-.45-.35-.78-.81-.79-.48,0-.83.33-.83.76s.33.74.78.75c.46,0,.85-.3.87-.72Z"/>
    <path class="st7" d="M49.44,36.77c0-.42.33-.76.76-.76s.76.34.76.76-.34.76-.76.76-.76-.33-.76-.76ZM50.6,36.77c0-.22-.18-.4-.4-.4-.23,0-.39.18-.39.4,0,.23.17.39.39.39s.4-.17.4-.39ZM49.91,39.85l1.91-3.93h.34l-1.9,3.93h-.34ZM51.12,39.15c0-.42.33-.76.75-.76s.76.34.76.76-.34.75-.76.75-.75-.33-.75-.75ZM52.27,39.15c0-.22-.18-.4-.4-.4s-.39.18-.39.4.17.39.39.39.4-.17.4-.39Z"/>
    <path class="st7" d="M55.68,35.92h.52v3.93h-.52v-1.72h-1.93v1.72h-.52v-3.93h.52v1.74h1.93v-1.74Z"/>
    <path class="st7" d="M58.72,35.92c.83,0,1.17.62,1.17,1.23s-.34,1.23-1.17,1.23h-1.04v1.48h-.52v-3.93h1.56ZM58.68,37.88c.49,0,.69-.37.69-.74s-.19-.75-.66-.75h-1.04v1.49h1.01Z"/>
    <path class="st7" d="M61.02,39.37h1.61v.48h-2.13v-3.93h.52v3.45Z"/>
    <path class="st7" d="M62.66,37.89c0-1.11.88-2.04,2-2.04.6,0,1.13.26,1.48.67l-.38.32c-.26-.31-.66-.51-1.1-.51-.83,0-1.48.72-1.48,1.56s.65,1.55,1.48,1.55c.44,0,.84-.2,1.1-.51l.38.32c-.35.41-.87.67-1.48.67-1.11,0-2-.91-2-2.03Z"/>
  </g>
  <g>
    <path class="st6" d="M36.87,37.14v.75h1.73v.54h-4.28v-1.2c0-.42.11-.74.33-.95.22-.22.54-.32.96-.32.26,0,.5.06.69.17s.34.28.44.5l1.82-.83h.04v.58l-1.73.76ZM36.41,37.89v-.65c0-.22-.07-.4-.22-.54-.15-.13-.34-.2-.58-.2-.55,0-.82.25-.82.75v.65h1.62Z"/>
    <path class="st6" d="M34.32,32.69h3.04c.41,0,.72.12.95.35.23.23.34.55.34.97s-.11.75-.34.97c-.22.22-.54.34-.96.34h-3.04v-.53h3.02c.29,0,.5-.06.64-.18.14-.12.21-.32.21-.59s-.07-.47-.21-.59c-.14-.12-.36-.18-.64-.18h-3.02v-.54Z"/>
    <path class="st6" d="M36.83,29.08c.58,0,1.03.12,1.35.37s.47.6.47,1.06-.15.79-.46,1.04-.74.39-1.3.4h-.81c-.57,0-1.02-.13-1.34-.38-.32-.25-.49-.61-.49-1.06s.15-.8.47-1.05c.31-.25.75-.38,1.33-.39h.78ZM36.09,29.61c-.45,0-.79.07-1.01.22-.22.15-.33.37-.33.68s.11.52.33.67c.22.15.55.23.99.23h.77c.44,0,.77-.08,1-.23.23-.15.34-.38.34-.68s-.11-.53-.32-.67-.54-.22-.97-.23h-.8Z"/>
  </g>
  <g>
    <path class="st6" d="M88.2,44.87h1.22v.39h-3.11v-.99c0-.29.09-.52.26-.68.17-.17.4-.25.69-.25s.53.08.69.24c.16.16.25.38.25.67v.63ZM87.87,44.87v-.6c0-.17-.05-.31-.16-.4-.1-.09-.25-.14-.45-.14s-.34.05-.45.14c-.11.1-.17.23-.17.39v.6h1.22Z"/>
    <path class="st6" d="M88.16,41.9v.55h1.26v.39h-3.11v-.87c0-.3.08-.54.24-.69.16-.16.39-.24.7-.24.19,0,.36.04.5.13.14.08.25.21.32.36l1.32-.6h.03v.42l-1.26.55ZM87.83,42.45v-.47c0-.16-.05-.29-.16-.39-.11-.1-.25-.15-.42-.15-.4,0-.6.18-.6.54v.47h1.18Z"/>
    <path class="st6" d="M88.14,38.49c.42,0,.75.09.98.27s.34.44.34.77-.11.57-.33.76c-.22.19-.54.28-.95.29h-.58c-.42,0-.74-.09-.98-.28s-.35-.44-.35-.77.11-.58.34-.77c.23-.18.55-.28.97-.28h.57ZM87.59,38.88c-.33,0-.57.05-.73.16-.16.11-.24.27-.24.5s.08.38.24.49.4.17.72.17h.56c.32,0,.56-.05.73-.17.17-.11.25-.28.25-.5s-.08-.38-.23-.49c-.15-.11-.39-.16-.71-.17h-.58Z"/>
    <path class="st6" d="M88.82,37.05l-2.51-.71v-.43l3.11.97v.34l-3.11.97v-.43l2.51-.71Z"/>
    <path class="st6" d="M89.42,35.08v.39h-3.11v-.39h3.11Z"/>
    <path class="st6" d="M89.42,34.39h-3.11v-.74c0-.36.11-.64.34-.85.23-.2.55-.3.96-.3h.52c.41,0,.73.1.95.31.22.2.34.5.34.89v.7ZM86.64,34h2.44v-.31c0-.28-.08-.48-.24-.6s-.39-.19-.7-.19h-.55c-.33,0-.57.06-.72.19s-.23.32-.23.57v.35Z"/>
    <path class="st6" d="M87.98,30.41v1.1h1.1v-1.28h.33v1.67h-3.11v-1.65h.33v1.26h1v-1.1h.33Z"/>
    <path class="st6" d="M88.16,28.78v.55h1.26v.39h-3.11v-.87c0-.3.08-.54.24-.69.16-.16.39-.23.7-.23.19,0,.36.04.5.13.14.08.25.2.32.36l1.32-.6h.03v.42l-1.26.55ZM87.83,29.33v-.47c0-.16-.05-.29-.16-.39-.11-.1-.25-.15-.42-.15-.4,0-.6.18-.6.54v.47h1.18Z"/>
    <path class="st6" d="M86.31,24.55h2.21c.29,0,.53.09.69.26s.25.4.25.7-.08.54-.24.71c-.16.16-.4.24-.7.25h-2.21v-.39h2.19c.21,0,.37-.04.47-.13.1-.09.16-.23.16-.43s-.05-.34-.16-.43c-.1-.09-.26-.13-.47-.13h-2.19v-.39Z"/>
    <path class="st6" d="M88.63,22.58c-.16,0-.27.04-.36.13-.08.08-.16.24-.24.46s-.16.39-.25.5c-.09.12-.18.2-.29.26s-.24.09-.38.09c-.25,0-.45-.08-.61-.25s-.24-.38-.24-.65c0-.18.04-.34.12-.49s.19-.25.34-.33c.14-.08.3-.12.48-.12v.39c-.19,0-.34.05-.45.14-.11.09-.16.23-.16.4,0,.16.04.28.13.37.09.09.21.13.37.13.13,0,.24-.05.33-.14.09-.09.17-.24.24-.44.1-.31.23-.53.37-.66.15-.13.34-.2.58-.2.25,0,.45.08.61.25.15.16.23.39.23.67,0,.18-.04.35-.12.5-.08.15-.19.27-.33.36-.14.09-.31.13-.49.13v-.39c.19,0,.34-.05.45-.16.11-.11.16-.25.16-.44,0-.17-.04-.3-.13-.39s-.21-.13-.36-.13Z"/>
    <path class="st6" d="M87.98,20.19v1.1h1.1v-1.28h.33v1.67h-3.11v-1.65h.33v1.26h1v-1.1h.33Z"/>
    <path class="st6" d="M88.14,16.48c.42,0,.75.09.98.27s.34.44.34.77-.11.57-.33.76c-.22.19-.54.28-.95.29h-.58c-.42,0-.74-.09-.98-.28s-.35-.44-.35-.77.11-.58.34-.77c.23-.18.55-.28.97-.28h.57ZM87.59,16.87c-.33,0-.57.05-.73.16-.16.11-.24.27-.24.49s.08.38.24.49.4.17.72.17h.56c.32,0,.56-.06.73-.17.17-.11.25-.28.25-.49s-.08-.38-.23-.49c-.15-.11-.39-.16-.71-.16h-.58Z"/>
    <path class="st6" d="M89.42,13.84v.39l-2.4,1.25h2.4v.39h-3.11v-.39l2.41-1.25h-2.41v-.39h3.11Z"/>
    <path class="st6" d="M89.08,12.77v-1.22h.33v1.61h-3.11v-.39h2.77Z"/>
    <path class="st6" d="M87.87,10.79l-1.56-.64v-.44l1.95.88h1.16v.39h-1.16l-1.95.88v-.44l1.56-.64Z"/>
    <path class="st6" d="M93.32,43.34v.39l-2.4,1.25h2.4v.39h-3.11v-.39l2.41-1.25h-2.41v-.39h3.11Z"/>
    <path class="st6" d="M92.04,40.64c.42,0,.75.09.98.27s.34.44.34.77-.11.57-.33.76c-.22.19-.54.28-.95.29h-.58c-.42,0-.74-.09-.98-.28s-.35-.44-.35-.77.11-.58.34-.77c.23-.18.55-.28.97-.28h.57ZM91.5,41.03c-.33,0-.57.05-.73.16s-.24.27-.24.49.08.38.24.49.4.17.72.17h.56c.32,0,.56-.06.73-.17.17-.11.25-.28.25-.49s-.08-.38-.23-.49c-.15-.11-.39-.16-.71-.16h-.58Z"/>
    <path class="st6" d="M90.55,38.28v.82h2.77v.39h-2.77v.82h-.33v-2.03h.33Z"/>
    <path class="st6" d="M91.95,35.46v1.05h1.37v.39h-3.11v-1.62h.33v1.23h1.07v-1.05h.34Z"/>
    <path class="st6" d="M92.04,32.78c.42,0,.75.09.98.27s.34.44.34.77-.11.57-.33.76c-.22.19-.54.28-.95.29h-.58c-.42,0-.74-.09-.98-.28s-.35-.44-.35-.77.11-.58.34-.77c.23-.18.55-.28.97-.28h.57ZM91.5,33.17c-.33,0-.57.05-.73.16-.16.11-.24.27-.24.5s.08.38.24.49.4.17.72.17h.56c.32,0,.56-.05.73-.17.17-.11.25-.28.25-.5s-.08-.38-.23-.49c-.15-.11-.39-.16-.71-.17h-.58Z"/>
    <path class="st6" d="M92.07,31.23v.55h1.26v.39h-3.11v-.87c0-.3.08-.54.24-.69.16-.16.39-.24.7-.24.19,0,.36.04.5.13.14.08.25.21.32.36l1.32-.6h.03v.42l-1.26.55ZM91.73,31.78v-.47c0-.16-.05-.29-.16-.39-.11-.1-.25-.15-.42-.15-.4,0-.6.18-.6.54v.47h1.18Z"/>
    <path class="st6" d="M93.32,26.81v.39h-1.44v1.25h1.44v.39h-3.11v-.39h1.34v-1.25h-1.34v-.39h3.11Z"/>
    <path class="st6" d="M90.21,24.28h2.21c.29,0,.53.09.69.26s.25.4.25.7-.08.54-.24.71c-.16.16-.4.24-.7.25h-2.21v-.39h2.19c.21,0,.37-.04.47-.13.1-.09.16-.23.16-.43s-.05-.34-.16-.43c-.1-.09-.26-.13-.47-.13h-2.19v-.39Z"/>
    <path class="st6" d="M90.21,23.18l2.54-.81-2.54-.81v-.5h3.11v.39h-1.21l-1.21-.04,2.42.81v.3l-2.42.81,1.21-.04h1.21v.39h-3.11v-.5Z"/>
    <path class="st6" d="M92.51,18.93v1.05l.81.24v.4l-3.11-1v-.34l3.11-1v.4l-.81.25ZM92.17,19.87v-.85l-1.41.43,1.41.42Z"/>
    <path class="st6" d="M93.32,15.82v.39l-2.4,1.25h2.4v.39h-3.11v-.39l2.41-1.25h-2.41v-.39h3.11Z"/>
    <path class="st6" d="M92.04,12.12c.42,0,.75.09.98.27s.34.44.34.77-.11.57-.33.76c-.22.19-.54.28-.95.29h-.58c-.42,0-.74-.09-.98-.28s-.35-.44-.35-.77.11-.58.34-.77c.23-.18.55-.28.97-.28h.57ZM91.5,12.51c-.33,0-.57.05-.73.16-.16.11-.24.27-.24.49s.08.38.24.49.4.17.72.17h.56c.32,0,.56-.06.73-.17.17-.11.25-.28.25-.49s-.08-.38-.23-.49c-.15-.11-.39-.16-.71-.16h-.58Z"/>
    <path class="st6" d="M92.07,10.58v.55h1.26v.39h-3.11v-.87c0-.3.08-.54.24-.69.16-.16.39-.23.7-.23.19,0,.36.04.5.13.14.08.25.2.32.36l1.32-.6h.03v.42l-1.26.55ZM91.73,11.12v-.47c0-.16-.05-.29-.16-.39-.11-.1-.25-.15-.42-.15-.4,0-.6.18-.6.54v.47h1.18Z"/>
    <path class="st6" d="M96.42,46.93v1.05l.81.24v.4l-3.11-1v-.34l3.11-1v.4l-.81.25ZM96.08,47.88v-.85l-1.41.42,1.41.42Z"/>
    <path class="st6" d="M97.23,43.83v.39l-2.4,1.25h2.4v.39h-3.11v-.39l2.41-1.25h-2.41v-.39h3.11Z"/>
    <path class="st6" d="M97.23,42.75v.39h-3.11v-.39h3.11Z"/>
    <path class="st6" d="M94.12,41.56l2.54-.81-2.54-.81v-.5h3.11v.39h-1.21l-1.21-.04,2.42.81v.3l-2.42.81,1.21-.04h1.21v.39h-3.11v-.5Z"/>
    <path class="st6" d="M96.42,37.31v1.05l.81.24v.4l-3.11-1v-.34l3.11-1v.4l-.81.25ZM96.08,38.26v-.85l-1.41.42,1.41.42Z"/>
    <path class="st6" d="M96.89,35.84v-1.22h.34v1.61h-3.11v-.39h2.77Z"/>
    <path class="st6" d="M96.24,31.21c.33.02.59.11.77.28.18.17.27.41.27.72s-.12.56-.36.74c-.24.18-.56.28-.96.28h-.56c-.4,0-.72-.09-.96-.28-.23-.19-.35-.45-.35-.77,0-.3.09-.53.27-.7.18-.17.44-.25.77-.27v.4c-.25.02-.43.07-.54.16s-.16.23-.16.41c0,.21.08.38.25.49.17.11.41.17.73.17h.57c.31,0,.56-.05.72-.16s.25-.26.25-.46-.05-.35-.15-.44c-.1-.09-.28-.15-.54-.17v-.4Z"/>
    <path class="st6" d="M95.95,28.66c.42,0,.75.09.98.27.23.18.34.44.34.77s-.11.57-.33.76c-.22.19-.54.28-.95.29h-.58c-.42,0-.74-.09-.98-.28-.24-.18-.35-.44-.35-.77s.11-.58.34-.77c.23-.18.55-.28.97-.28h.57ZM95.4,29.05c-.33,0-.57.05-.73.16s-.24.27-.24.49.08.38.24.49c.16.11.4.17.72.17h.56c.32,0,.56-.06.73-.17s.25-.28.25-.49-.08-.38-.23-.49c-.15-.11-.39-.16-.71-.16h-.58Z"/>
    <path class="st6" d="M97.23,26.02v.39l-2.4,1.25h2.4v.39h-3.11v-.39l2.41-1.25h-2.41v-.39h3.11Z"/>
    <path class="st6" d="M96.44,23.98c-.16,0-.27.04-.36.13-.08.08-.16.24-.24.46-.08.22-.16.39-.25.5s-.18.2-.29.26-.24.09-.38.09c-.25,0-.45-.08-.61-.25-.16-.16-.24-.38-.24-.65,0-.18.04-.34.12-.49.08-.14.2-.25.34-.33.15-.08.3-.12.48-.12v.39c-.19,0-.34.05-.45.14-.11.09-.16.23-.16.4,0,.16.04.28.13.37.09.09.21.13.37.13.13,0,.24-.05.33-.14.09-.09.17-.24.24-.44.1-.31.23-.53.38-.66.15-.13.34-.2.58-.2.25,0,.45.08.61.25.15.16.23.39.23.67,0,.18-.04.35-.12.5-.08.15-.19.27-.33.36-.14.09-.31.13-.49.13v-.39c.19,0,.34-.05.45-.16s.16-.25.16-.44c0-.17-.04-.3-.13-.39-.09-.09-.21-.13-.36-.13Z"/>
    <path class="st6" d="M94.12,21.22h2.21c.29,0,.53.09.69.26.17.17.25.4.25.7s-.08.54-.24.71c-.16.16-.4.24-.7.25h-2.21v-.39h2.19c.21,0,.37-.04.47-.13.1-.09.15-.23.15-.43s-.05-.34-.15-.43c-.1-.09-.26-.13-.47-.13h-2.19v-.39Z"/>
    <path class="st6" d="M94.12,20.11l2.54-.81-2.54-.81v-.5h3.11v.39h-1.21l-1.21-.04,2.42.81v.3l-2.42.81,1.21-.04h1.21v.39h-3.11v-.5Z"/>
    <path class="st6" d="M96.01,16.92h1.22v.39h-3.11v-.99c0-.29.09-.52.26-.68s.4-.25.69-.25.53.08.69.24c.16.16.25.38.25.67v.63ZM95.68,16.92v-.6c0-.17-.05-.31-.16-.4-.1-.09-.25-.14-.45-.14s-.34.05-.45.14c-.11.1-.17.23-.17.39v.6h1.22Z"/>
    <path class="st6" d="M94.45,13.07v.82h2.78v.39h-2.78v.82h-.33v-2.03h.33Z"/>
    <path class="st6" d="M97.23,12.21v.39h-3.11v-.39h3.11Z"/>
    <path class="st6" d="M95.95,9.5c.42,0,.75.09.98.27.23.18.34.44.34.77s-.11.57-.33.76c-.22.19-.54.28-.95.29h-.58c-.42,0-.74-.09-.98-.28-.24-.18-.35-.44-.35-.77s.11-.58.34-.77.55-.28.97-.28h.57ZM95.4,9.89c-.33,0-.57.05-.73.16-.16.11-.24.27-.24.49s.08.38.24.49c.16.11.4.17.72.17h.56c.32,0,.56-.06.73-.17s.25-.28.25-.49-.08-.38-.23-.49c-.15-.11-.39-.16-.71-.16h-.58Z"/>
    <path class="st6" d="M97.23,6.86v.39l-2.4,1.25h2.4v.39h-3.11v-.39l2.41-1.25h-2.41v-.39h3.11Z"/>
  </g>
  <g>
    <path class="st1" d="M135.3,46.75c.29,0,.49.16.62.47.13-.41.37-.61.72-.61.24,0,.45.1.61.29s.25.42.25.7c0,.09,0,.24-.03.42-.01.14-.02.25-.02.36,0,.06,0,.14.03.25.02.11.03.19.03.24,0,.06-.02.1-.05.14-.03.04-.07.05-.12.05-.09,0-.14-.06-.14-.17,0-.03,0-.06,0-.08,0-.06,0-.09,0-.09,0-.07-.04-.11-.13-.13s-.29-.03-.62-.03h-.81c-.33,0-.54,0-.62.03-.08.02-.12.06-.12.13,0,.02,0,.04,0,.08,0,.04,0,.07,0,.09,0,.11-.05.17-.15.17-.11,0-.17-.07-.17-.2,0-.06,0-.15.02-.27.02-.12.02-.21.02-.27,0-.13,0-.25-.02-.38-.01-.13-.02-.24-.02-.34,0-.25.06-.46.19-.61.12-.16.29-.23.49-.23ZM135.2,48.2h.49s.07,0,.09-.02c.01,0,.02-.04.02-.08v-.17c0-.28-.04-.47-.1-.59-.07-.12-.19-.18-.35-.18-.29,0-.43.2-.43.61,0,.17.02.29.06.35.04.06.12.09.23.09ZM136.09,47.82c0,.15,0,.23,0,.25.01.09.06.13.13.13h.65c.15,0,.24-.03.29-.09.05-.06.07-.18.07-.36,0-.48-.19-.72-.58-.72-.25,0-.41.1-.5.29-.04.1-.06.26-.06.5Z"/>
    <path class="st1" d="M136.62,46l-1.81-.61c-.08-.03-.14-.06-.16-.08-.05-.04-.07-.1-.07-.18,0-.1.02-.16.06-.2.04-.03.14-.08.32-.13l1.96-.6c.12-.04.2-.08.24-.1.04-.03.06-.07.06-.12,0-.01,0-.04,0-.09,0-.01,0-.02,0-.04v-.03c0-.11.05-.17.15-.17.11,0,.17.06.17.18,0,.01-.01.09-.03.24-.01.07-.02.15-.02.23,0,.06,0,.15.03.26.02.11.03.18.03.22,0,.05-.02.09-.05.13s-.07.06-.12.06c-.1,0-.15-.06-.15-.17v-.11c0-.08-.04-.12-.13-.12-.05,0-.11,0-.18.03l-.31.09s-.07.03-.08.04-.01.04-.01.09v.63c0,.07.05.12.15.16l.3.09c.08.02.14.04.19.04.05,0,.08-.03.08-.09v-.12c0-.11.05-.17.15-.17s.16.06.16.17c0,.05,0,.12-.03.21-.02.1-.03.17-.03.23,0,.08,0,.17.03.27.02.11.03.18.03.22,0,.13-.05.19-.16.19s-.15-.05-.15-.16c0-.02,0-.05,0-.08,0-.03,0-.06,0-.08,0-.06-.04-.11-.13-.16-.08-.05-.24-.11-.46-.19ZM136.08,44.83l-1.06.29,1.06.33s.04.01.05.01c.04,0,.06-.03.06-.1v-.46c0-.06-.02-.09-.05-.09,0,0-.03,0-.05.01Z"/>
    <path class="st1" d="M135.26,42.55h1.2c.33,0,.53,0,.62-.03.08-.02.13-.06.13-.13,0-.01,0-.04,0-.09,0-.02,0-.05,0-.08,0-.11.05-.17.14-.17.05,0,.09.02.12.06.03.04.05.09.05.14,0,.03,0,.11-.03.25-.01.09-.02.18-.02.25,0,.06,0,.14.03.24.02.11.03.18.03.23,0,.06-.02.1-.05.14-.03.04-.07.06-.12.06-.09,0-.14-.06-.14-.17,0-.03,0-.06,0-.08,0-.05,0-.08,0-.09,0-.07-.04-.11-.13-.12-.08-.02-.29-.02-.62-.02h-1.01c-.24,0-.39.01-.45.04-.06.03-.09.1-.09.22s.01.21.04.25c.03.04.09.07.17.07.03,0,.1,0,.22,0,.12,0,.2-.01.24-.01.15,0,.23.06.23.18,0,.12-.06.17-.19.17,0,0-.04,0-.13,0-.14,0-.24,0-.32,0-.05,0-.13,0-.25.01-.06,0-.11,0-.16,0-.1,0-.15-.05-.15-.16,0-.03,0-.11.01-.23.01-.12.02-.31.02-.55v-.46c0-.15,0-.26-.02-.32,0-.12-.01-.23-.01-.33s.05-.16.15-.16c.02,0,.06,0,.14,0,.12,0,.22,0,.3,0,.07,0,.16,0,.28,0,.06,0,.1,0,.13,0,.13,0,.19.06.19.18,0,.11-.07.17-.21.17,0,0-.04,0-.08,0s-.08,0-.11,0h-.26c-.09,0-.15.02-.18.06-.04.04-.05.11-.05.21,0,.14.03.23.09.27.03.02.12.03.25.03Z"/>
    <path class="st1" d="M134.58,40.34c0-.28.09-.5.28-.66h-.04c-.09,0-.15-.01-.19-.03-.03-.02-.05-.06-.05-.12,0-.1.05-.16.16-.16.05,0,.14,0,.25.02.11.01.19.02.25.02.07,0,.15,0,.25-.02.1-.01.17-.02.22-.02.12,0,.18.06.18.17s-.06.17-.17.17h-.2c-.2,0-.36.06-.47.17-.12.11-.18.26-.18.44,0,.25.1.44.31.59.21.15.49.22.85.22s.64-.08.86-.23c.22-.15.33-.35.33-.6,0-.19-.06-.35-.17-.47s-.27-.19-.47-.21c-.1,0-.17-.03-.2-.06-.03-.03-.05-.08-.05-.15,0-.11.05-.17.16-.17.29,0,.54.1.74.31.2.21.3.46.3.77,0,.36-.13.65-.4.87-.27.21-.63.32-1.09.32s-.79-.11-1.06-.32c-.27-.22-.4-.5-.4-.85Z"/>
    <path class="st1" d="M136.46,37.12h-.22c-.05,0-.08,0-.1.02-.01.01-.02.04-.02.09,0,.02,0,.06,0,.12v.83s0,.06.02.07c.02.02.08.03.18.03h.56c.21-.02.32-.07.32-.15,0,0,0-.04,0-.09,0-.02,0-.05,0-.08,0-.05.01-.09.04-.12s.06-.05.1-.05c.05,0,.09.02.12.06.03.04.05.09.05.14,0,.04,0,.12-.03.26-.01.09-.02.17-.02.24,0,.06,0,.14.03.25.02.11.03.19.03.25s-.02.1-.05.14c-.03.04-.07.06-.12.06-.09,0-.14-.06-.14-.17,0-.03,0-.06,0-.08,0-.06,0-.09,0-.09,0-.07-.04-.11-.13-.13-.08-.02-.29-.03-.62-.03h-.81c-.33,0-.54,0-.62.03s-.13.06-.13.13c0,.02,0,.04.01.08,0,.04.01.07.01.09,0,.11-.05.17-.15.17-.11,0-.17-.07-.17-.2,0-.06,0-.14.02-.22.02-.1.03-.2.03-.31,0-.05,0-.13-.02-.23-.02-.1-.02-.17-.02-.22,0-.06.02-.1.05-.14.03-.04.07-.06.12-.06.04,0,.07.02.1.05s.04.07.04.12c0,.02,0,.05-.01.09,0,.04-.01.07-.01.09,0,.08.11.13.33.15,0,0,.14,0,.42,0h.09c.05,0,.09-.02.1-.05.01-.03.02-.11.02-.24v-.61c0-.12,0-.19-.03-.22-.02-.03-.07-.04-.14-.04h-.03c-.29,0-.43,0-.42,0-.22.02-.33.07-.33.15,0,.02,0,.06.01.1s.01.07.01.08c0,.05-.01.09-.04.12s-.06.05-.1.05c-.05,0-.09-.02-.12-.06s-.05-.09-.05-.14,0-.14.02-.25.02-.2.02-.26c0-.06,0-.14-.02-.24s-.02-.18-.02-.22c0-.06.02-.1.05-.14.03-.04.07-.06.12-.06.04,0,.07.02.1.05s.04.07.04.12c0,.02,0,.05-.01.09,0,.04-.01.07-.01.09,0,.08.11.13.33.15,0,0,.14,0,.42,0h1.24c.21-.02.32-.07.32-.15,0,0,0-.04,0-.09,0-.02,0-.05,0-.08,0-.05.01-.09.04-.12s.06-.05.1-.05c.05,0,.09.02.12.06.03.04.05.09.05.15,0,.05,0,.13-.03.25-.02.11-.03.2-.03.26,0,.05,0,.13.03.24.02.1.03.18.03.24,0,.06-.02.1-.05.14-.03.04-.07.06-.12.06-.04,0-.07-.02-.1-.05s-.04-.08-.04-.12c0-.03,0-.06,0-.08,0-.05,0-.08,0-.09,0-.08-.11-.13-.32-.15h-.42Z"/>
    <path class="st1" d="M136.16,35.81c0,.08-.02.15-.08.2-.05.05-.11.08-.19.08s-.14-.02-.19-.08-.08-.12-.08-.2.03-.14.08-.19.12-.08.19-.08.14.03.19.08c.05.05.08.11.08.19ZM137.53,35.81c0,.08-.02.15-.07.2s-.12.08-.2.08-.14-.02-.19-.08c-.05-.05-.07-.12-.07-.2s.02-.14.07-.19c.05-.05.11-.08.19-.08s.15.03.2.08.07.11.07.19Z"/>
  </g>
  <path class="st1" d="M19.01,43.76c.01.1.01.36,0,.46-.15,1.15-1.67,1.62-2.46.72-.29-.34-.29-.73-.57-1.05-.7-.8-2-.51-2.32.5-.18.56.1.89.06,1.39-.12,1.31-1.87,1.78-2.58.67-.17-.26-.2-.57-.4-.83-.84-1.1-2.6-.35-2.42,1.06.07.58.24.97-.17,1.5-1.11,1.42-3.27-.12-2.35-1.66.28-.47.61-.56,1.1-.66.32-.07.64-.71.67-1.02.04-.51-.2-.83-.07-1.34.31-1.24,1.99-1.47,2.6-.35.15.27.17.54.4.79.7.81,2.01.5,2.32-.51.19-.62-.17-1.01-.02-1.59.23-.96,1.41-1.39,2.21-.8.6.44.44,1.21,1.22,1.58.68.32.92-.07,1.55-.02s1.18.6,1.26,1.19Z"/>
  <path class="st1" d="M8.44,4.91h.49c.6.27.78,1.02.22,1.44-.67.5-1.54-.29-1.16-1.03.1-.2.27-.29.45-.41Z"/>
  <path class="st8" d="M14.2,24.42h2.73v.97h-6.65v-.97h.59c-.84-.64-.91-1.89-.36-2.75.87-1.32,3.08-1.36,3.98-.06.59.85.54,2.14-.3,2.81ZM11.08,23.1c.1,1.65,2.6,1.78,2.88.14.34-2.02-3-2.12-2.88-.14Z"/>
  <path class="st8" d="M10.04,12.33v1.01c-.5,0-.89.33-1,.81-.12.52.07,1.21.61,1.42,1.12.44,1.24-1.21,1.48-1.91.38-1.12,1.21-1.91,2.47-1.43,2.06.79,1.57,4.47-.74,4.48v-1.01c.6-.03,1-.53,1.09-1.1.11-.72-.29-1.54-1.12-1.45-.91.09-.96,1.85-1.3,2.53-.73,1.47-2.62,1.25-3.25-.17s.09-3.2,1.77-3.17Z"/>
  <path class="st8" d="M12.34,35.21h2.43v1s-.03.03-.03.03h-6.53s-.04-.05-.03-.07c.05-.92-.06-1.89,0-2.8.15-2.43,3.97-2.44,4.16-.06v1.89ZM11.41,35.21v-1.72c0-.07-.07-.3-.11-.37-.44-.9-2.19-.66-2.19.39v1.7h2.3Z"/>
  <path class="st8" d="M12.93,26.49v3.53c1.18-.19,1.37-1.73.57-2.47-.04-.04-.16-.09-.16-.14l.35-.72s.07-.02.1,0c.45.17.88.89,1.01,1.33.5,1.84-.97,3.31-2.8,2.97-2.35-.44-2.5-3.88-.17-4.44.36-.09.74-.09,1.11-.05ZM12.14,27.44c-1.44.16-1.43,2.4,0,2.56v-2.56Z"/>
  <path class="st8" d="M10.17,9.14c-.05-.56.07-1.13.39-1.6.05-.08.3-.39.38-.39.06,0,.53.55.6.63-.11.14-.22.25-.3.41-.42.83-.01,1.89.91,2.11,1.15.28,2.08-.75,1.75-1.87-.08-.26-.22-.45-.4-.65l.57-.62c.09-.04.29.22.34.29.98,1.29.37,3.32-1.2,3.77-1.48.43-2.93-.54-3.06-2.08Z"/>
  <polygon class="st8" points="8.62 18.32 10.28 18.32 10.28 17.36 11.09 17.36 11.09 18.29 11.12 18.32 14.77 18.32 14.77 19.29 11.12 19.29 11.09 19.32 11.09 20.08 10.28 20.08 10.28 19.29 8.62 19.29 8.62 18.32"/>
  <path class="st1" d="M8.84,49.53c-.12-1.15,1.11-1.99,2.12-1.39s.88,2.13-.21,2.56c-.86.33-1.81-.25-1.91-1.17Z"/>
  <path class="st1" d="M8.72,40.79c-.04-.49.17-.99.57-1.28,1.22-.9,2.76.5,2.07,1.83-.64,1.23-2.52.84-2.64-.55Z"/>
  <path class="st1" d="M14.66,47.21c-.13-1.29,1.32-2.12,2.31-1.26.85.73.54,2.16-.54,2.45-.81.22-1.68-.34-1.77-1.19Z"/>
  <rect class="st8" x="10.28" y="5.19" width="4.49" height=".97"/>
  <path class="st8" d="M19.4,12.48h-.33c.76.61.29,1.73-.64,1.78s-1.52-.84-1-1.63l.16-.15h-.3v-.45h2.1v.45ZM17.68,13.31c.12.74,1.5.64,1.34-.29-.13-.78-1.5-.66-1.34.29Z"/>
  <path class="st8" d="M16.14,6.92h1.45l-.2-.19c-.27-.4-.19-1.01.27-1.24.05-.03.28-.1.32-.1h1.41v.45h-1.31s-.15.06-.18.07c-.36.2-.26.78.09.94.03.01.15.06.16.06h1.24v.45h-3.25v-.45Z"/>
  <path class="st8" d="M18.52,19.17v1.68c.55-.04.64-.73.35-1.11-.04-.05-.12-.08-.12-.13s.14-.34.19-.34c.07.01.29.25.34.31.43.67.08,1.63-.74,1.73-1.7.21-1.71-2.34,0-2.15ZM18.17,19.62c-.7.06-.69,1.18,0,1.23v-1.23Z"/>
  <path class="st8" d="M18.52,14.63v1.68c.55-.04.64-.73.35-1.11-.04-.05-.12-.08-.12-.13s.14-.34.19-.34c.07.01.29.25.34.31.43.67.08,1.63-.74,1.73-1.7.21-1.71-2.34,0-2.15ZM18.17,15.09c-.7.06-.69,1.18,0,1.23v-1.23Z"/>
  <path class="st8" d="M17.87,17.24v.43s-.17.01-.22.19c-.12.38.29.61.44.29.16-.34.07-.88.61-.97.95-.15,1.03,1.63.08,1.64v-.43s.12.01.2-.09c.23-.28,0-.85-.3-.65-.13.08-.17.54-.25.7-.15.34-.5.5-.84.31-.54-.3-.43-1.45.29-1.43Z"/>
  <path class="st8" d="M17.25,8.85c-.04-.35.05-.78.36-.98.05,0,.2.23.26.27-.33.37-.26,1.03.25,1.2.74.24,1.19-.66.7-1.2.22-.21.24-.42.46-.06.34.55.14,1.37-.46,1.64-.69.32-1.48-.11-1.57-.86Z"/>
  <path class="st8" d="M19.4,22.48v.45h-2.1v-.45h.43l-.25-.14c-.2-.16-.25-.35-.22-.6.04-.34.21-.19.46-.14.04.05-.04.19-.04.27-.02.25.14.42.36.51.09.04.34.1.43.1h.94Z"/>
  <path class="st8" d="M19.4,10.93v.45h-2.1v-.45h.43l-.25-.14c-.2-.16-.25-.35-.22-.6.04-.34.21-.19.46-.14.04.05-.04.19-.04.27-.02.25.14.42.36.51.09.04.34.1.43.1h.94Z"/>
  <g>
    <path class="st6" d="M32.28,6.14c0,.32-.17.55-.51.69.44.15.66.42.66.8,0,.27-.1.5-.31.68s-.46.28-.76.28c-.1,0-.25-.01-.46-.03-.15-.02-.28-.02-.39-.02-.06,0-.15,0-.27.03s-.2.03-.26.03c-.06,0-.11-.02-.15-.05-.04-.04-.06-.08-.06-.14,0-.1.06-.16.18-.16.04,0,.07,0,.08,0,.06,0,.09,0,.1,0,.07,0,.12-.05.14-.14.02-.09.03-.32.03-.68v-.9c0-.37,0-.6-.03-.69-.02-.09-.06-.14-.14-.14-.02,0-.05,0-.09,0s-.07,0-.1,0c-.12,0-.18-.05-.18-.16,0-.12.07-.19.22-.19.06,0,.16,0,.29.03.13.02.23.03.29.03.14,0,.27,0,.41-.02s.26-.02.37-.02c.28,0,.5.07.67.21.17.14.25.32.25.55ZM30.71,6.03v.55c0,.05,0,.08.02.1.01.01.04.02.09.02h.19c.3,0,.51-.04.64-.12s.19-.21.19-.39c0-.32-.22-.48-.66-.48-.19,0-.31.02-.38.06-.06.04-.09.13-.09.26ZM31.12,7.01c-.16,0-.25,0-.27,0-.09.02-.14.06-.14.14v.72c0,.16.04.27.1.32.06.05.19.08.39.08.52,0,.78-.21.78-.64,0-.27-.11-.46-.32-.55-.11-.05-.29-.07-.54-.07Z"/>
    <path class="st6" d="M33.26,6.77v-.74c0-.21-.05-.32-.16-.32h-.13s-.09-.01-.12-.04-.05-.07-.05-.11c0-.12.07-.18.21-.18.05,0,.12,0,.2.02.11.02.21.03.28.03.06,0,.15,0,.25-.03s.19-.03.24-.03c.06,0,.11.02.15.05.04.04.06.08.06.13,0,.04-.02.08-.05.11-.04.03-.08.05-.13.05-.02,0-.05,0-.09,0-.04,0-.07,0-.09,0-.09,0-.15.12-.16.36,0,0,0,.15,0,.47v.69c0,.34.02.58.06.72.03.11.1.2.22.26.11.07.24.1.38.1s.27-.03.38-.1c.11-.07.18-.16.22-.28.04-.13.06-.36.06-.7v-.69c0-.32,0-.47,0-.47-.02-.24-.07-.36-.16-.36-.02,0-.05,0-.09,0-.04,0-.07,0-.09,0-.05,0-.1-.02-.13-.05-.04-.03-.05-.07-.05-.11,0-.05.02-.1.06-.13.04-.03.1-.05.16-.05.05,0,.13,0,.24.03.11.02.19.03.24.03.06,0,.14,0,.25-.03.11-.02.19-.03.25-.03.13,0,.2.06.2.18,0,.1-.06.16-.18.16h-.1c-.08,0-.13.03-.15.09-.02.06-.03.2-.03.43v1.19c0,.36-.05.62-.15.79-.08.13-.21.24-.38.31-.17.08-.37.11-.58.11-.2,0-.37-.03-.53-.1-.16-.07-.27-.16-.34-.27-.1-.16-.15-.45-.15-.84v-.64Z"/>
    <path class="st6" d="M36.46,8.26c.07,0,.12-.05.14-.14.02-.09.03-.32.03-.69v-.91c0-.37,0-.6-.03-.69-.02-.09-.06-.14-.14-.14-.02,0-.05,0-.09,0-.04,0-.07,0-.1,0-.12,0-.18-.05-.18-.16,0-.12.07-.18.22-.18.07,0,.18.01.32.03.08.01.17.02.26.02.06,0,.2,0,.42-.02.09,0,.18,0,.28,0,.91,0,1.36.53,1.36,1.59s-.47,1.59-1.41,1.59c-.08,0-.19,0-.32-.02-.2-.02-.34-.03-.41-.03-.06,0-.14,0-.24.02-.14.02-.23.03-.27.03-.06,0-.11-.02-.15-.05-.04-.04-.06-.08-.06-.14,0-.1.06-.16.18-.16.04,0,.07,0,.08.02.06.01.09.02.1.02ZM37.03,8.01c0,.12.06.2.16.23.06.02.17.03.35.03.31,0,.54-.1.69-.29.2-.26.3-.6.3-1.02,0-.34-.06-.61-.18-.83-.12-.21-.29-.34-.51-.38-.13-.03-.26-.04-.4-.04-.19,0-.31.03-.36.1-.03.04-.05.14-.05.31v1.89Z"/>
    <path class="st6" d="M39.78,7.09c-.09,0-.16-.03-.21-.08-.05-.06-.08-.13-.08-.21s.03-.16.08-.22c.05-.06.13-.08.21-.08s.15.03.21.08c.05.06.08.13.08.22s-.03.16-.08.21c-.06.06-.12.08-.21.08ZM39.78,8.62c-.09,0-.16-.03-.21-.08-.05-.06-.08-.13-.08-.22s.03-.16.08-.21c.05-.06.13-.08.21-.08s.15.03.21.08c.05.06.08.13.08.21s-.03.16-.08.22c-.06.06-.12.08-.21.08Z"/>
  </g>
  <text class="st4" transform="translate(41.16 8.75) scale(1.14 1)"><tspan x="0" y="0">10/</tspan></text>
  <text class="st0" transform="translate(49.51 9.52)"><tspan x="0" y="0">07</tspan></text>
  <text class="st3" transform="translate(57.1 8.66) scale(1.19 1)"><tspan x="0" y="0">/2027</tspan></text>
  <g class="st5">
    <rect x="102.5" y="29.78" width="26.26" height="1.59"/>
    <rect x="102.5" y="27.04" width="26.26" height="1.59"/>
    <rect x="102.5" y="4.36" width="26.26" height="1.21"/>
    <rect x="102.5" y="34.54" width="26.26" height="1.21"/>
    <rect x="102.5" y="15.1" width="26.26" height="1.21"/>
    <rect x="102.5" y="42.93" width="26.26" height="1.14"/>
    <rect x="102.5" y="31.81" width="26.26" height="1.14"/>
    <rect x="102.5" y="12.3" width="26.25" height=".83"/>
    <polygon points="102.5 3.21 102.5 2.39 128.76 2.39 128.75 3.21 102.5 3.21"/>
    <rect x="102.5" y="9.12" width="26.25" height=".83"/>
    <rect x="102.5" y="37.34" width="26.25" height=".83"/>
    <polygon points="102.5 50.43 128.75 50.43 128.76 51.26 102.5 51.26 102.5 50.43"/>
    <rect x="102.5" y="17.07" width="26.25" height=".83"/>
    <rect x="102.5" y="21.45" width="26.25" height=".83"/>
    <rect x="102.5" y="23.04" width="26.25" height=".83"/>
    <rect x="102.5" y="44.52" width="26.25" height=".76"/>
    <rect x="102.5" y="41.72" width="26.25" height=".76"/>
    <rect x="102.5" y="6.77" width="26.25" height=".76"/>
    <rect x="102.5" y="24.25" width="26.25" height=".76"/>
    <rect x="102.5" y="13.89" width="26.24" height=".44"/>
    <rect x="102.5" y="20.24" width="26.24" height=".44"/>
    <rect x="102.5" y="18.65" width="26.24" height=".44"/>
    <rect x="102.5" y="40.9" width="26.24" height=".44"/>
    <rect x="102.5" y="39.31" width="26.24" height=".44"/>
    <rect x="102.5" y="36.13" width="26.24" height=".44"/>
    <rect x="102.5" y="10.71" width="26.24" height=".44"/>
    <rect x="102.5" y="11.54" width="26.24" height=".38"/>
    <rect x="102.5" y="25.45" width="26.24" height=".38"/>
    <rect x="102.5" y="33.4" width="26.24" height=".38"/>
    <rect x="102.5" y="29.01" width="26.24" height=".38"/>
    <rect x="102.5" y="46.49" width="26.24" height=".38"/>
    <rect x="102.5" y="3.59" width="26.24" height=".38"/>
    <rect x="102.5" y="48.46" width="26.24" height=".38"/>
    <rect x="102.5" y="49.67" width="26.24" height=".38"/>
  </g>
</svg>